<svg id="Icon_awesome-arrow-up" data-name="Icon awesome-arrow-up" xmlns="http://www.w3.org/2000/svg" width="32" height="32" viewBox="0 0 32 32">
  <path id="Icon_awesome-arrow-up-2" data-name="Icon awesome-arrow-up" d="M2.541,20.641.914,19.055a1.676,1.676,0,0,1,0-2.421L15.155,2.75a1.784,1.784,0,0,1,2.485,0L31.881,16.627a1.676,1.676,0,0,1,0,2.421l-1.627,1.586a1.794,1.794,0,0,1-2.514-.029l-8.407-8.6V32.532a1.733,1.733,0,0,1-1.759,1.714H15.228a1.733,1.733,0,0,1-1.759-1.714V12.006L5.055,20.612A1.78,1.78,0,0,1,2.541,20.641Z" transform="translate(-0.397 -2.246)" fill="#f9a828"/>
</svg>
