<svg xmlns="http://www.w3.org/2000/svg" width="425.844" height="540.371" viewBox="0 0 425.844 540.371">
  <path id="Path_752" data-name="Path 752" d="M232.632,237.825q-61.429,0-108.933-21.735t-74.7-60q-27.2-38.263-27.721-87.979H161.832q.781,27.591,21.474,43.99t49.326,16.4q22.125,0,39.044-9.5a67.8,67.8,0,0,0,26.55-26.94q9.631-17.44,9.371-40.606.26-23.426-9.371-40.736a68.026,68.026,0,0,0-26.55-26.81q-16.919-9.5-39.044-9.5a83.9,83.9,0,0,0-42.3,11.062,67.415,67.415,0,0,0-28.5,30.585L34.808-8.934,55.632-302.545H413.8v115.571H174.326L163.914-69.322h3.124q12.494-24.207,43.209-40.215t71.321-16.008q47.634,0,84.986,22.125T425.64-42.381Q447.374-3.467,447.114,47.29q.26,55.7-26.42,98.782T345.86,213.488Q297.705,237.825,232.632,237.825Z" transform="translate(-21.273 302.545)" fill="#f9a828" opacity="0.35"/>
</svg>
