<svg xmlns="http://www.w3.org/2000/svg" width="24" height="17" viewBox="0 0 24 17">
  <g id="Group_2072" data-name="Group 2072" transform="translate(-1487.549 -34)">
    <path id="Path_797" data-name="Path 797" d="M26.054,6.912l-6.208,6.469a.116.116,0,0,0,0,.165l4.344,4.734a.779.779,0,0,1,0,1.086.74.74,0,0,1-1.062,0L18.8,14.651a.117.117,0,0,0-.167,0l-1.056,1.1a4.594,4.594,0,0,1-3.312,1.428,4.687,4.687,0,0,1-3.381-1.47L9.871,14.651a.117.117,0,0,0-.167,0L5.377,19.367a.74.74,0,0,1-1.062,0,.779.779,0,0,1,0-1.086L8.66,13.547a.128.128,0,0,0,0-.165L2.446,6.912a.113.113,0,0,0-.2.083V19.94A1.873,1.873,0,0,0,4.1,21.828H24.4A1.873,1.873,0,0,0,26.25,19.94V6.995A.115.115,0,0,0,26.054,6.912Z" transform="translate(1485.299 29.172)" fill="#f9a828"/>
    <path id="Path_798" data-name="Path 798" d="M14.1,16.058a3.1,3.1,0,0,0,2.253-.968l9.039-9.427a1.784,1.784,0,0,0-1.141-.413H3.958a1.772,1.772,0,0,0-1.141.413l9.039,9.427A3.1,3.1,0,0,0,14.1,16.058Z" transform="translate(1485.454 28.75)" fill="#f9a828"/>
  </g>
</svg>
