<svg xmlns="http://www.w3.org/2000/svg" width="16" height="16" viewBox="0 0 16 16">
  <g id="pencil" transform="translate(-2.247 -2.25)">
    <path id="Path_613" data-name="Path 613" d="M14.011,2.585a1.143,1.143,0,0,1,1.616,0l2.286,2.286a1.143,1.143,0,0,1,0,1.616L7.627,16.772a1.143,1.143,0,0,1-.446.276L3.753,18.191a1.143,1.143,0,0,1-1.447-1.446l1.143-3.429a1.143,1.143,0,0,1,.276-.447L14.01,2.584Zm.808.808,2.286,2.286L6.82,15.964,3.391,17.107l1.143-3.429Z" fill="#f9a828"/>
    <path id="Path_614" data-name="Path 614" d="M17.174,10.734,14.325,7.885l.807-.807,2.849,2.849-.806.807ZM6.75,14.89v.57a.57.57,0,0,0,.57.57h.57v.57a.57.57,0,0,0,.57.57h.57v.57a.57.57,0,0,0,.57.57h.57V16.6a.57.57,0,0,0-.57-.57h-.57v-.57a.57.57,0,0,0-.57-.57Z" transform="translate(-2.201 -2.36)" fill-rule="evenodd"/>
  </g>
</svg>
