<svg xmlns="http://www.w3.org/2000/svg" width="24" height="24.048" viewBox="0 0 24 24.048">
  <path id="df1cf4ce-55fa-4172-90c6-49aaaf45f9c3" d="M26.119,20.012v3.62a2.413,2.413,0,0,1-2.631,2.413,23.9,23.9,0,0,1-10.414-3.7A23.531,23.531,0,0,1,5.834,15.1,23.875,23.875,0,0,1,2.13,4.638a2.412,2.412,0,0,1,2.4-2.631h3.62a2.414,2.414,0,0,1,2.413,2.075,15.549,15.549,0,0,0,.844,3.392,2.411,2.411,0,0,1-.542,2.545L9.333,11.553a19.305,19.305,0,0,0,7.241,7.24l1.532-1.532a2.414,2.414,0,0,1,2.547-.543,15.473,15.473,0,0,0,3.391.845A2.412,2.412,0,0,1,26.119,20.012Z" transform="translate(-2.12 -2.007)" fill="#f9a828"/>
</svg>
