<svg xmlns="http://www.w3.org/2000/svg" xmlns:xlink="http://www.w3.org/1999/xlink" width="99" height="104" viewBox="0 0 99 104">
  <defs>
    <clipPath id="clip-path">
      <rect id="Rectangle_2960" data-name="Rectangle 2960" width="99" height="104" transform="translate(903 1459)" fill="#fff" stroke="#707070" stroke-width="1"/>
    </clipPath>
  </defs>
  <g id="Mask_Group_9" data-name="Mask Group 9" transform="translate(-903 -1459)" clip-path="url(#clip-path)">
    <g id="Artwork_8" data-name="Artwork 8" transform="translate(948.947 1506.372)">
      <g id="Group_2440" data-name="Group 2440" transform="translate(-36.368 -47.372)">
        <path id="Path_2121" data-name="Path 2121" d="M95.169,205.45H94.121a4.752,4.752,0,0,0-4.745,4.745v7.9h3.161v-7.9a1.586,1.586,0,0,1,1.584-1.584h1.048a1.585,1.585,0,0,1,1.583,1.584v7.9h3.161v-7.9a4.75,4.75,0,0,0-4.744-4.745Z" transform="translate(-72.559 -166.792)" fill="#f9a828"/>
        <path id="Path_2122" data-name="Path 2122" d="M95.169,390.25H94.121a4.751,4.751,0,0,0-4.745,4.744v7.9h3.161v-7.9a1.585,1.585,0,0,1,1.584-1.583h1.048a1.585,1.585,0,0,1,1.583,1.583v7.9h3.161v-7.9a4.748,4.748,0,0,0-4.744-4.744Z" transform="translate(-72.559 -316.82)" fill="#f9a828"/>
        <path id="Path_2123" data-name="Path 2123" d="M95.169,295.05H94.121a4.751,4.751,0,0,0-4.745,4.744v7.9h3.161v-7.9a1.585,1.585,0,0,1,1.584-1.583h1.048a1.585,1.585,0,0,1,1.583,1.583v7.9h3.161v-7.9a4.748,4.748,0,0,0-4.744-4.744Z" transform="translate(-72.559 -239.533)" fill="#f9a828"/>
        <path id="Path_2124" data-name="Path 2124" d="M179.163,205.45h-1.047a4.752,4.752,0,0,0-4.745,4.745v7.9h3.161v-7.9a1.586,1.586,0,0,1,1.584-1.584h1.047a1.585,1.585,0,0,1,1.584,1.584v7.9h3.161v-7.9a4.751,4.751,0,0,0-4.744-4.745Z" transform="translate(-140.748 -166.792)" fill="#f9a828"/>
        <path id="Path_2125" data-name="Path 2125" d="M179.163,295.05h-1.047a4.751,4.751,0,0,0-4.745,4.744v7.9h3.161v-7.9a1.586,1.586,0,0,1,1.584-1.583h1.047a1.585,1.585,0,0,1,1.584,1.583v7.9h3.161v-7.9a4.749,4.749,0,0,0-4.744-4.744Z" transform="translate(-140.748 -239.533)" fill="#f9a828"/>
        <path id="Path_2126" data-name="Path 2126" d="M7.808,68.247l4.825,2.06-.467-5.227,3.449-3.951L10.5,59.958l-2.693-4.5-2.693,4.5L0,61.129l3.448,3.951-.467,5.227Zm-.672-5.509.673-1.125.673,1.125,1.278.292-.862.989.117,1.305-1.206-.515L6.6,65.324l.116-1.305-.861-.989Z" transform="translate(0 -45.022)" fill="#f9a828"/>
        <path id="Path_2127" data-name="Path 2127" d="M105.374,14.858l4.83-2.068,4.829,2.068-.474-5.23,3.46-3.956L112.9,4.509,110.2,0l-2.691,4.509-2.537.578-2.544.635,3.419,3.907Zm4.162-7.567.67-1.123.671,1.123,1.275.29-.863.986.117,1.3-1.2-.514-1.2.514.117-1.3-.861-.985Z" transform="translate(-83.158)" fill="#f9a828"/>
        <path id="Path_2128" data-name="Path 2128" d="M221.458,15.876l4.834-2.077,4.836,2.078-.484-5.239,3.472-3.956-5.134-1.159L226.291,1,223.6,5.522l-5.132,1.16,3.471,3.956Zm4.167-7.569.666-1.12.667,1.12,1.271.287-.86.98.121,1.3-1.2-.514-1.2.514.119-1.3-.86-.98Z" transform="translate(-177.363 -0.812)" fill="#f9a828"/>
        <path id="Path_2129" data-name="Path 2129" d="M322.662,73.126l4.838-2.085,4.836,2.085-.489-5.245,3.48-3.954-5.14-1.156L327.5,58.238l-2.687,4.532-5.139,1.156,3.478,3.954Zm4.174-7.57.663-1.118.663,1.118,1.269.286-.858.977.12,1.3L327.5,67.6l-1.2.514.121-1.295-.858-.977Z" transform="translate(-259.523 -47.28)" fill="#f9a828"/>
        <path id="Path_2130" data-name="Path 2130" d="M78.746,139.87V124.993h4.214v-3.161H73.476V113.4h2.116v-3.161H27.108V113.4h2.114v8.428H19.739v3.161h4.216V184H16.578v3.161H71.572c3.38,6.328,4.736,6.337,5.344,6.337.827,0,3.023,0,9.779-15.779,1.55-3.618,6.6-15.866,6.6-21.577a16.4,16.4,0,0,0-14.553-16.273ZM32.383,113.4H70.315v8.428H32.383ZM47.135,184V165.037h9.483V184Zm12.644,0V161.876H43.973V184H27.115V124.994H75.584v14.834a16.316,16.316,0,0,0-3.161.573v-7.5a4.752,4.752,0,0,0-4.745-4.745H66.63a4.752,4.752,0,0,0-4.745,4.745v7.9h3.161v-7.9a1.586,1.586,0,0,1,1.584-1.584h1.047a1.586,1.586,0,0,1,1.584,1.584v7.9h1.962a16.4,16.4,0,0,0-10.692,15.343c0,5.711,5.055,17.959,6.6,21.577,1.053,2.457,1.993,4.53,2.836,6.281Zm17.137,5.933c-3.375-4.153-13.222-26.781-13.222-33.79a13.222,13.222,0,1,1,26.445,0c0,7.01-9.845,29.637-13.223,33.79Z" transform="translate(-13.459 -89.499)" fill="#f9a828"/>
        <path id="Path_2131" data-name="Path 2131" d="M303.82,313.01a7.749,7.749,0,1,0,7.749,7.749A7.757,7.757,0,0,0,303.82,313.01Zm0,12.336a4.588,4.588,0,1,1,4.588-4.588A4.593,4.593,0,0,1,303.82,325.346Z" transform="translate(-240.362 -254.113)" fill="#f9a828"/>
      </g>
    </g>
  </g>
</svg>
