<svg xmlns="http://www.w3.org/2000/svg" width="133.297" height="102" viewBox="0 0 133.297 102">
  <g id="Group_2455" data-name="Group 2455" transform="translate(-422.996 -1953)">
    <path id="Path_1645" data-name="Path 1645" d="M122.464,797.32V808.7H59.01V797.32a3.9,3.9,0,0,1,3.761-3.885l-31.338-53.69H10.943A4.034,4.034,0,0,1,6.865,736.3a3.89,3.89,0,0,1,1.113-3.2,3.945,3.945,0,0,1,2.8-1.145H33.308a4.641,4.641,0,0,1,4.011,2.291l34.539,59.18h46.669A3.919,3.919,0,0,1,122.464,797.32Z" transform="translate(417.16 1233.965)" fill="none" stroke="#f9a828" stroke-miterlimit="10" stroke-width="2"/>
    <path id="Path_1646" data-name="Path 1646" d="M79.708,763.375v13.437a6.06,6.06,0,0,0,6.06,6.06h1.75a21.669,21.669,0,1,0,31.671-24.339" transform="translate(407.965 1229.91)" fill="none" stroke="#f9a828" stroke-miterlimit="10" stroke-width="2"/>
    <path id="Path_1647" data-name="Path 1647" d="M96.21,739.372H127.5a4.749,4.749,0,0,1,4.75,4.75v14.417h-31.29" transform="translate(407.965 1232.423)" fill="none" stroke="#f9a828" stroke-miterlimit="10" stroke-width="2"/>
    <rect id="Rectangle_2948" data-name="Rectangle 2948" width="18.958" height="7.25" transform="translate(514.987 1966.087)" fill="none" stroke="#f9a828" stroke-miterlimit="10" stroke-width="2"/>
    <path id="Path_1648" data-name="Path 1648" d="M100.959,744.125v14.5c-1.86,1.85-2.9,2.89-4.75,4.75h-23l-4.75-4.75v-14.5c1.85-1.86,2.89-2.9,4.75-4.75h6.5v-9.34h-5.48l-5.77-10h12.71a8.557,8.557,0,0,1,8.54,8.55v10.79h6.5Z" transform="translate(411.913 1233.965)" fill="none" stroke="#f9a828" stroke-miterlimit="10" stroke-width="2"/>
    <rect id="Rectangle_2949" data-name="Rectangle 2949" width="33.667" height="11.333" transform="translate(429.821 2042.667)" fill="none" stroke="#f9a828" stroke-miterlimit="10" stroke-width="2"/>
    <rect id="Rectangle_2950" data-name="Rectangle 2950" width="33.667" height="11.333" transform="translate(460.423 2042.667)" fill="none" stroke="#f9a828" stroke-miterlimit="10" stroke-width="2"/>
    <rect id="Rectangle_2951" data-name="Rectangle 2951" width="33.667" height="11.333" transform="translate(491.024 2042.667)" fill="none" stroke="#f9a828" stroke-miterlimit="10" stroke-width="2"/>
    <rect id="Rectangle_2952" data-name="Rectangle 2952" width="33.667" height="11.333" transform="translate(521.626 2042.667)" fill="none" stroke="#f9a828" stroke-miterlimit="10" stroke-width="2"/>
    <path id="Path_1649" data-name="Path 1649" d="M108.479,787.167a9.794,9.794,0,1,1,7.16-3.113" transform="translate(410.175 1230.156)" fill="none" stroke="#f9a828" stroke-miterlimit="10" stroke-width="2"/>
    <line id="Line_63" data-name="Line 63" x2="16.965" transform="translate(481.031 1978.613)" fill="none" stroke="#f9a828" stroke-miterlimit="10" stroke-width="2"/>
    <line id="Line_64" data-name="Line 64" x2="5" transform="translate(500.512 1978.613)" fill="none" stroke="#f9a828" stroke-miterlimit="10" stroke-width="2"/>
  </g>
</svg>
