<svg xmlns="http://www.w3.org/2000/svg" width="126.965" height="102.709" viewBox="0 0 126.965 102.709">
  <g id="Group_2456" data-name="Group 2456" transform="translate(-903.395 -1952.5)">
    <path id="Path_1622" data-name="Path 1622" d="M1845.825,718.665v-2.239h-13.907a5.831,5.831,0,0,0-5.313-4.116h-7.42c.064.307.136.606.194.92l-2.2.4c-.081-.45-.18-.884-.277-1.319h-13.547a4.731,4.731,0,0,0-4.726,4.726v16.977a4.731,4.731,0,0,0,4.726,4.726h12.4c.066-.377.148-.82.244-1.326l2.2.414c-.126.672-.231,1.233-.3,1.664a19.027,19.027,0,0,0-.019,6.389c.011-2.733.285-5.346,2.935-7.37l2.629-2.009h-20.091a2.49,2.49,0,0,1-2.487-2.488v-1.322h-1.119v-2.238h1.119v-3.809h-1.119V724.4h1.119V720.6h-1.119v-2.239h1.119v-1.321a2.49,2.49,0,0,1,2.487-2.487h23.253a3.546,3.546,0,0,1,3.242,3v1.12Z" transform="translate(-850.964 1249.923)" fill="#f9a828" stroke="rgba(0,0,0,0)" stroke-width="1"/>
    <path id="Path_1623" data-name="Path 1623" d="M1826.821,756.984c2.04,0,4.106-1.243,4.106-3.62a5.587,5.587,0,0,1,3.274-5.343,8.737,8.737,0,0,0,4.69-6.07h13.985v-2.239h-15.754l-.2.873c-.793,3.524-2.033,4.463-3.835,5.492a7.752,7.752,0,0,0-4.4,7.286c0,1.091-1.174,1.381-1.868,1.381a2.086,2.086,0,0,1-1.7-.724,7.891,7.891,0,0,0,1.4,2.951C1826.614,756.978,1826.718,756.984,1826.821,756.984Z" transform="translate(-858.014 1242.63)" fill="#f9a828" stroke="rgba(0,0,0,0)" stroke-width="1"/>
    <path id="Path_1624" data-name="Path 1624" d="M1822.168,759.893a14.046,14.046,0,0,1-.357-1.545A3.443,3.443,0,0,0,1822.168,759.893Z" transform="translate(-857.134 1237.671)" fill="#f9a828" stroke="rgba(0,0,0,0)" stroke-width="1"/>
    <path id="Path_1625" data-name="Path 1625" d="M1820.1,702.606a5.021,5.021,0,0,0-9.082,0,27.073,27.073,0,0,0-1.257,3.247l2.135.676a24.717,24.717,0,0,1,1.151-2.977,2.783,2.783,0,0,1,5.023,0,26.686,26.686,0,0,1,1.792,5.409h2.287A29.254,29.254,0,0,0,1820.1,702.606Z" transform="translate(-853.927 1253.271)" fill="#f9a828" stroke="rgba(0,0,0,0)" stroke-width="1"/>
    <path id="Path_1626" data-name="Path 1626" d="M1826.005,713.23c-.057-.313-.13-.613-.194-.92h-2.287c.1.435.2.869.277,1.319Z" transform="translate(-857.59 1249.923)" fill="#f9a828" stroke="rgba(0,0,0,0)" stroke-width="1"/>
    <path id="Path_1627" data-name="Path 1627" d="M1825.048,758.9c-.072-.273-.132-.558-.187-.849,0,.064,0,.128,0,.192A1.172,1.172,0,0,0,1825.048,758.9Z" transform="translate(-857.945 1237.749)" fill="#f9a828" stroke="rgba(0,0,0,0)" stroke-width="1"/>
    <path id="Path_1628" data-name="Path 1628" d="M1823.553,748.323h-1.725c-.024.143-.047.278-.067.4a21.346,21.346,0,0,0-.046,6.956c0-.009,0-.016,0-.025C1821.714,753.273,1821.887,750.636,1823.553,748.323Z" transform="translate(-857.039 1240.339)" fill="#f9a828" stroke="rgba(0,0,0,0)" stroke-width="1"/>
    <path id="Path_1629" data-name="Path 1629" d="M1812.817,758.21a9.017,9.017,0,0,0,2.657,4.419,8.33,8.33,0,0,0,4.937,1.764,7.706,7.706,0,0,1,2.692.618c1.852.955,2.915,3.04,2.915,5.721v5.6h1.12v2.238h-1.12v4.506a8.874,8.874,0,0,0,2.616,6.316l.695.695a2.947,2.947,0,0,1-2.075,1.286h-4.2v1.119h-2.238v-1.119H1816.8v1.119h-2.238v-1.119h-4.023v1.119h-2.239v-1.119h-4.022v1.119h-2.239v-1.119h-4.022v1.119h-2.239v-1.119h-4.2a2.951,2.951,0,0,1-2.075-1.286l.7-.695a8.877,8.877,0,0,0,2.616-6.316v-4.506h-1.119v-2.238h1.119v-3.545h-1.119v-2.239h1.129c.049-2.589,1.1-4.6,2.905-5.534a7.706,7.706,0,0,1,2.693-.618,8.329,8.329,0,0,0,4.937-1.764c2.37-2.021,3.547-5.887,3.231-10.606l-2.233.15c.267,4.005-.625,7.2-2.45,8.753a6.253,6.253,0,0,1-3.732,1.242,9.525,9.525,0,0,0-3.47.853c-2.624,1.352-4.129,4.163-4.129,7.712v12.341a6.652,6.652,0,0,1-1.959,4.733l-1.936,1.935.389.732c.068.128,1.7,3.135,4.51,3.135h35.68c2.809,0,4.441-3.007,4.51-3.135l.39-.732-1.936-1.935a6.653,6.653,0,0,1-1.96-4.733V770.732c0-3.549-1.5-6.36-4.128-7.712a9.528,9.528,0,0,0-3.471-.853,6.249,6.249,0,0,1-3.731-1.242,4.938,4.938,0,0,1-.645-.677A4.066,4.066,0,0,1,1812.817,758.21Z" transform="translate(-847.783 1239.354)" fill="#f9a828" stroke="rgba(0,0,0,0)" stroke-width="1"/>
    <path id="Path_1630" data-name="Path 1630" d="M1824.068,748.594c.068-.431.173-.991.3-1.664l-2.2-.414c-.1.506-.178.949-.244,1.326h1.725c-1.666,2.313-1.839,4.95-1.839,7.332,0,.009,0,.016,0,.025a14,14,0,0,0,.357,1.545,4.066,4.066,0,0,0,3.465,2.038,7.884,7.884,0,0,1-1.4-2.951,1.172,1.172,0,0,1-.188-.658c0-.064,0-.128,0-.192A19.024,19.024,0,0,1,1824.068,748.594Z" transform="translate(-857.134 1240.819)" fill="#f9a828" stroke="rgba(0,0,0,0)" stroke-width="1"/>
    <path id="Path_1631" data-name="Path 1631" d="M1798,787.382v-1.119h2.239v1.119h4.023v-1.119h2.239v1.119h4.023v-1.119h2.239v1.119h4.023v-1.119h2.239v1.119h4.023v-1.119h2.239v1.119h2.962v-2.239h-33.208v2.239Z" transform="translate(-850.008 1230.539)" fill="#f9a828" stroke="rgba(0,0,0,0)" stroke-width="1"/>
    <rect id="Rectangle_2922" data-name="Rectangle 2922" width="1.119" height="2.239" transform="translate(978.235 2015.683)" fill="#f9a828" stroke="rgba(0,0,0,0)" stroke-width="1"/>
    <rect id="Rectangle_2923" data-name="Rectangle 2923" width="1.119" height="2.239" transform="translate(943.907 2015.683)" fill="#f9a828" stroke="rgba(0,0,0,0)" stroke-width="1"/>
    <path id="Path_1632" data-name="Path 1632" d="M1795.035,779.5h28.731v-2.239h-28.722c0,.064-.009.123-.009.187Z" transform="translate(-850.008 1232.637)" fill="#f9a828" stroke="rgba(0,0,0,0)" stroke-width="1"/>
    <path id="Path_1633" data-name="Path 1633" d="M1793.51,779.5h1.119v-2.052c0-.064.008-.123.009-.187h-1.129Z" transform="translate(-849.603 1232.637)" fill="#f9a828" stroke="rgba(0,0,0,0)" stroke-width="1"/>
    <rect id="Rectangle_2924" data-name="Rectangle 2924" width="2.239" height="12.803" transform="translate(947.989 2017.922)" fill="#f9a828" stroke="rgba(0,0,0,0)" stroke-width="1"/>
    <rect id="Rectangle_2925" data-name="Rectangle 2925" width="2.239" height="1.119" transform="translate(947.989 2030.725)" fill="#f9a828" stroke="rgba(0,0,0,0)" stroke-width="1"/>
    <rect id="Rectangle_2926" data-name="Rectangle 2926" width="2.239" height="1.119" transform="translate(947.989 2016.802)" fill="#f9a828" stroke="rgba(0,0,0,0)" stroke-width="1"/>
    <rect id="Rectangle_2927" data-name="Rectangle 2927" width="2.239" height="12.803" transform="translate(954.25 2017.922)" fill="#f9a828" stroke="rgba(0,0,0,0)" stroke-width="1"/>
    <rect id="Rectangle_2928" data-name="Rectangle 2928" width="2.239" height="1.119" transform="translate(954.25 2030.725)" fill="#f9a828" stroke="rgba(0,0,0,0)" stroke-width="1"/>
    <rect id="Rectangle_2929" data-name="Rectangle 2929" width="2.239" height="1.119" transform="translate(954.25 2016.802)" fill="#f9a828" stroke="rgba(0,0,0,0)" stroke-width="1"/>
    <rect id="Rectangle_2930" data-name="Rectangle 2930" width="2.239" height="12.803" transform="translate(960.512 2017.922)" fill="#f9a828" stroke="rgba(0,0,0,0)" stroke-width="1"/>
    <rect id="Rectangle_2931" data-name="Rectangle 2931" width="2.239" height="1.119" transform="translate(960.512 2030.725)" fill="#f9a828" stroke="rgba(0,0,0,0)" stroke-width="1"/>
    <rect id="Rectangle_2932" data-name="Rectangle 2932" width="2.239" height="1.119" transform="translate(960.512 2016.802)" fill="#f9a828" stroke="rgba(0,0,0,0)" stroke-width="1"/>
    <rect id="Rectangle_2933" data-name="Rectangle 2933" width="2.239" height="12.803" transform="translate(966.773 2017.922)" fill="#f9a828" stroke="rgba(0,0,0,0)" stroke-width="1"/>
    <rect id="Rectangle_2934" data-name="Rectangle 2934" width="2.239" height="1.119" transform="translate(966.773 2030.725)" fill="#f9a828" stroke="rgba(0,0,0,0)" stroke-width="1"/>
    <rect id="Rectangle_2935" data-name="Rectangle 2935" width="2.239" height="1.119" transform="translate(966.773 2016.802)" fill="#f9a828" stroke="rgba(0,0,0,0)" stroke-width="1"/>
    <rect id="Rectangle_2936" data-name="Rectangle 2936" width="2.239" height="12.803" transform="translate(973.035 2017.922)" fill="#f9a828" stroke="rgba(0,0,0,0)" stroke-width="1"/>
    <rect id="Rectangle_2937" data-name="Rectangle 2937" width="2.239" height="1.119" transform="translate(973.035 2030.725)" fill="#f9a828" stroke="rgba(0,0,0,0)" stroke-width="1"/>
    <rect id="Rectangle_2938" data-name="Rectangle 2938" width="2.239" height="1.119" transform="translate(973.035 2016.802)" fill="#f9a828" stroke="rgba(0,0,0,0)" stroke-width="1"/>
    <rect id="Rectangle_2939" data-name="Rectangle 2939" width="6.455" height="2.239" transform="translate(949.901 1980.375)" fill="#f9a828" stroke="rgba(0,0,0,0)" stroke-width="1"/>
    <rect id="Rectangle_2940" data-name="Rectangle 2940" width="1.119" height="2.239" transform="translate(948.782 1980.375)" fill="#f9a828" stroke="rgba(0,0,0,0)" stroke-width="1"/>
    <rect id="Rectangle_2941" data-name="Rectangle 2941" width="6.455" height="2.239" transform="translate(949.901 1974.328)" fill="#f9a828" stroke="rgba(0,0,0,0)" stroke-width="1"/>
    <rect id="Rectangle_2942" data-name="Rectangle 2942" width="1.119" height="2.239" transform="translate(948.782 1974.328)" fill="#f9a828" stroke="rgba(0,0,0,0)" stroke-width="1"/>
    <rect id="Rectangle_2943" data-name="Rectangle 2943" width="6.455" height="2.239" transform="translate(949.901 1968.28)" fill="#f9a828" stroke="rgba(0,0,0,0)" stroke-width="1"/>
    <rect id="Rectangle_2944" data-name="Rectangle 2944" width="1.119" height="2.239" transform="translate(948.782 1968.28)" fill="#f9a828" stroke="rgba(0,0,0,0)" stroke-width="1"/>
    <rect id="Rectangle_2945" data-name="Rectangle 2945" width="123.965" height="9.034" transform="translate(904.895 2044.674)" fill="none" stroke="#f9a828" stroke-miterlimit="10" stroke-width="3"/>
  </g>
</svg>
