<?xml version="1.0" encoding="UTF-8"?>
<svg xmlns="http://www.w3.org/2000/svg" xmlns:xlink="http://www.w3.org/1999/xlink" width="195" height="101" viewBox="0 0 195 101">
  <defs>
    <clipPath id="clip-path">
      <rect id="Rectangle_2963" data-name="Rectangle 2963" width="195" height="101" transform="translate(848 4223)" fill="none" stroke="#f70d0d" stroke-width="1"></rect>
    </clipPath>
  </defs>
  <g id="Mask_Group_12" data-name="Mask Group 12" transform="translate(-848 -4223)" clip-path="url(#clip-path)">
    <g id="sport_hall" data-name="sport hall" transform="translate(941.5 4270.5)">
      <g id="Group_2443" data-name="Group 2443" transform="translate(-46.058 -46.059)">
        <path id="Path_2166" data-name="Path 2166" d="M96.665,0H3.334A3.334,3.334,0,0,0,0,3.334v5a3.333,3.333,0,0,0,3.334,3.333V95a5,5,0,0,0,5,5H91.665a5,5,0,0,0,5-5V11.666A3.333,3.333,0,0,0,100,8.334v-5A3.334,3.334,0,0,0,96.665,0Zm-35,96.666V68.334a1.667,1.667,0,0,1,1.667-1.667h8.334v30Zm13.334,0v-30h8.334A1.667,1.667,0,0,1,85,68.333V96.665ZM93.333,95a1.666,1.666,0,0,1-1.667,1.666H88.333V68.334a5,5,0,0,0-5-5h-20a5,5,0,0,0-5,5V96.666h-50A1.666,1.666,0,0,1,6.666,95V11.666H93.334ZM95,8.334H3.334v-5H96.665v5Z" fill="#f9a828"></path>
        <path id="Path_2167" data-name="Path 2167" d="M60.6,379.232H91.31a4.606,4.606,0,0,0,4.606-4.606V359.274a4.606,4.606,0,0,0-4.606-4.606H60.6A4.6,4.6,0,0,0,56,359.274v15.353a4.6,4.6,0,0,0,4.606,4.606Zm-1.535-19.958a1.535,1.535,0,0,1,1.535-1.536H91.31a1.536,1.536,0,0,1,1.535,1.536v15.353a1.535,1.535,0,0,1-1.535,1.535H60.6a1.535,1.535,0,0,1-1.535-1.535Z" transform="translate(-46.787 -288.444)" fill="#f9a828"></path>
        <path id="Path_2168" data-name="Path 2168" d="M178.624,123.92a19.981,19.981,0,1,0-14.106-5.852A19.959,19.959,0,0,0,178.624,123.92Zm-7.793-23.789a21.247,21.247,0,0,1-6.659,12.523,16.759,16.759,0,0,1-2.409-8.151A17.473,17.473,0,0,1,170.832,100.13Zm24.654,4.373a16.76,16.76,0,0,1-2.409,8.151,21.247,21.247,0,0,1-6.659-12.523A17.473,17.473,0,0,1,195.486,104.5ZM180.16,96.328V87.151a16.738,16.738,0,0,1,6.775,2.124,13.128,13.128,0,0,0-3.577,7.259c-1-.106-2.074-.172-3.2-.207Zm-3.071,0c-1.124.035-2.2.1-3.2.208h0a13.13,13.13,0,0,0-3.577-7.259,16.737,16.737,0,0,1,6.775-2.124Zm-11.082,18.82a24.084,24.084,0,0,0,7.961-15.535c.967-.111,2.016-.18,3.122-.218v21.376a16.838,16.838,0,0,1-11.082-5.622Zm14.152,5.622V99.394c1.105.038,2.149.107,3.122.218h0a24.083,24.083,0,0,0,7.961,15.535,16.839,16.839,0,0,1-11.082,5.622Zm14.934-20.5h0a24.616,24.616,0,0,0-8.7-3.28,10.108,10.108,0,0,1,3.091-5.946,16.908,16.908,0,0,1,5.614,9.226ZM167.766,91.04h0a10.119,10.119,0,0,1,3.091,5.945,24.632,24.632,0,0,0-8.705,3.279,16.907,16.907,0,0,1,5.619-9.224Z" transform="translate(-128.625 -68.097)" fill="#f9a828"></path>
        <path id="Path_2169" data-name="Path 2169" d="M94.87,396.7a1.535,1.535,0,0,0,1.085-.45l1.535-1.535a1.535,1.535,0,0,0-2.171-2.171l-1.535,1.535h0A1.536,1.536,0,0,0,94.87,396.7Z" transform="translate(-76.599 -321.806)" fill="#f9a828"></path>
        <path id="Path_2170" data-name="Path 2170" d="M94.87,404.381a1.535,1.535,0,0,0,1.085-.45l9.212-9.212A1.536,1.536,0,0,0,103,392.548l-9.212,9.212a1.536,1.536,0,0,0,1.086,2.621Z" transform="translate(-76.466 -321.249)" fill="#f9a828"></path>
      </g>
    </g>
  </g>
</svg>
