<?xml version="1.0" encoding="UTF-8"?>
<svg xmlns="http://www.w3.org/2000/svg" width="115.306" height="101.344" viewBox="0 0 115.306 101.344">
  <g id="Group_2376" data-name="Group 2376" transform="translate(-428.5 -1457.21)">
    <path id="Path_1488" data-name="Path 1488" d="M68.632,49.924a31.885,31.885,0,1,1,55.1.049" transform="translate(414.225 1456.71)" fill="none" stroke="#f9a828" stroke-miterlimit="10" stroke-width="3"></path>
    <path id="Path_1489" data-name="Path 1489" d="M101.243,42.62a3.688,3.688,0,1,1,3.688,3.688A3.688,3.688,0,0,1,101.243,42.62Z" transform="translate(405.229 1448.239)" fill="none" stroke="#f9a828" stroke-miterlimit="10" stroke-width="3"></path>
    <path id="Path_1490" data-name="Path 1490" d="M57.17,68.863H72.264V55.945c0-4.535,4.314-7.032,9.422-7.032V39.835a12.823,12.823,0,1,1,25.646,0v9.078c5.1,0,9.414,2.5,9.414,7.032V100.19" transform="translate(415.913 1451.652)" fill="none" stroke="#f9a828" stroke-miterlimit="10" stroke-width="3"></path>
    <path id="Path_1491" data-name="Path 1491" d="M10.274,98.182H3.84A1.841,1.841,0,0,1,2,96.342V83.66a1.839,1.839,0,0,1,1.84-1.832h6.434" transform="translate(428 1438.461)" fill="none" stroke="#f9a828" stroke-miterlimit="10" stroke-width="3"></path>
    <path id="Path_1493" data-name="Path 1493" d="M40.945,117.916v-9.958c5.439-1.224,7.072-3.263,8.7-6.119s3.943-5.372,8.839-5.372c4.691,0,4.641-8.4,0-8.4-4.215,0-8.5.367-11.83,4.726V78.627a5.049,5.049,0,0,0-5.049-5.048H17.845A5.049,5.049,0,0,0,12.8,78.627v23.226c0,3.33,3.315,6.1,5.763,6.1v9.958" transform="translate(425.447 1440.638)" fill="none" stroke="#f9a828" stroke-miterlimit="10" stroke-width="3"></path>
    <g id="Group_2236" data-name="Group 2236" transform="translate(446.709 1514.217)">
      <line id="Line_9" data-name="Line 9" y1="7.825" transform="translate(16.93)" fill="none" stroke="#f9a828" stroke-miterlimit="10" stroke-width="3"></line>
      <line id="Line_10" data-name="Line 10" y1="7.825" transform="translate(8.465)" fill="none" stroke="#f9a828" stroke-miterlimit="10" stroke-width="3"></line>
      <line id="Line_11" data-name="Line 11" y1="7.825" fill="none" stroke="#f9a828" stroke-miterlimit="10" stroke-width="3"></line>
    </g>
    <path id="Path_1494" data-name="Path 1494" d="M101.243,42.62a3.688,3.688,0,1,1,3.688,3.688A3.688,3.688,0,0,1,101.243,42.62Z" transform="translate(405.229 1448.239)" fill="none" stroke="#f9a828" stroke-miterlimit="10" stroke-width="3"></path>
    <line id="Line_13" data-name="Line 13" x1="14.468" transform="translate(501.165 1535.095)" fill="none" stroke="#f9a828" stroke-miterlimit="10" stroke-width="3"></line>
    <line id="Line_14" data-name="Line 14" x2="27.715" transform="translate(487.877 1520.185)" fill="none" stroke="#f9a828" stroke-miterlimit="10" stroke-width="3"></line>
    <line id="Line_15" data-name="Line 15" x2="3.818" transform="translate(518.774 1520.185)" fill="none" stroke="#f9a828" stroke-miterlimit="10" stroke-width="3"></line>
  </g>
</svg>
