<?xml version="1.0" encoding="UTF-8"?>
<svg xmlns="http://www.w3.org/2000/svg" xmlns:xlink="http://www.w3.org/1999/xlink" width="165" height="108" viewBox="0 0 165 108">
  <defs>
    <clipPath id="clip-path">
      <rect id="Rectangle_2962" data-name="Rectangle 2962" width="165" height="108" transform="translate(407 1950)" fill="#fff" stroke="#707070" stroke-width="1"></rect>
    </clipPath>
  </defs>
  <g id="Mask_Group_11" data-name="Mask Group 11" transform="translate(-407 -1950)" clip-path="url(#clip-path)">
    <g id="school" transform="translate(483.763 1998.478)">
      <g id="Group_2442" data-name="Group 2442" transform="translate(-50.361 -48.478)">
        <path id="Path_2165" data-name="Path 2165" d="M38.763,77.521a1.793,1.793,0,0,1,1.793-1.793h1.878a1.793,1.793,0,0,1,0,3.586H40.557A1.794,1.794,0,0,1,38.763,77.521Zm67.8,17.872H110.4a1.793,1.793,0,0,1,1.793,1.793v9.02A1.793,1.793,0,0,1,110.4,108H20.646a20.646,20.646,0,0,1,0-41.293H45.007V53.829a11.089,11.089,0,0,1,22.179,0v6.294a1.793,1.793,0,0,1-3.586,0V53.829a7.5,7.5,0,0,0-15.006,0V66.707H93.727V40.949a1.793,1.793,0,1,1,3.586,0V66.707H110.4a1.793,1.793,0,0,1,1.793,1.793v9.02a1.793,1.793,0,0,1-1.793,1.793h-3.843Zm-61.988-3.1H34.549V101.4L38.2,97.181a1.792,1.792,0,0,1,2.711,0l3.656,4.218Zm-7.888,12.12h5.755l-2.878-3.321Zm71.925-5.435H48.155v5.435h60.452Zm-5.635-3.585v-3.1H53.194a1.793,1.793,0,0,1,0-3.586h49.779V86H32.756a1.793,1.793,0,0,1,0-3.587h70.217v-3.1H49.779a1.793,1.793,0,1,1,0-3.586h58.83V70.293H20.647a17.06,17.06,0,0,0,0,34.12H30.964V98.979H20.73a11.626,11.626,0,0,1,0-23.252H32.756a1.793,1.793,0,1,1,0,3.586H20.73a8.04,8.04,0,1,0,0,16.079H30.964V90.5a1.793,1.793,0,0,1,1.793-1.793H46.365A1.793,1.793,0,0,1,48.158,90.5v4.893ZM7.156,33.709a1.793,1.793,0,0,1-.247-1.616l8.96-26.878a1.793,1.793,0,0,1,1.7-1.225H52.276L54.642.7a1.86,1.86,0,0,1,2.911,0L79.267,30.868H101.1L93.333,7.576H67.2a1.793,1.793,0,1,1,0-3.586H94.624a1.794,1.794,0,0,1,1.7,1.225l8.96,26.878a1.792,1.792,0,0,1-1.7,2.36H78.347a1.792,1.792,0,0,1-1.455-.746L56.1,4.817,35.3,33.707a1.793,1.793,0,0,1-1.455.746H18.466V60.123a1.793,1.793,0,1,1-3.586,0V34.452H8.61a1.8,1.8,0,0,1-1.455-.744ZM11.1,30.867h21.83L49.694,7.575H18.863Zm45-11.349A7.393,7.393,0,1,1,48.7,26.912,7.4,7.4,0,0,1,56.1,19.518Zm0,3.586A3.807,3.807,0,1,0,59.9,26.912,3.811,3.811,0,0,0,56.1,23.1ZM37.46,48.677a1.793,1.793,0,0,1-1.793,1.793H27.939a1.793,1.793,0,0,1-1.793-1.793V44.813a5.657,5.657,0,1,1,11.315,0Zm-3.586-3.864a2.071,2.071,0,0,0-4.142,0v2.071h4.142ZM37.46,58.141V62A1.793,1.793,0,0,1,35.667,63.8H27.939A1.793,1.793,0,0,1,26.146,62V58.141a5.657,5.657,0,0,1,11.315,0Zm-3.586,0a2.071,2.071,0,0,0-4.142,0v2.071h4.142ZM86.05,48.677a1.793,1.793,0,0,1-1.793,1.793H76.528a1.793,1.793,0,0,1-1.793-1.793V44.813a5.657,5.657,0,1,1,11.315,0Zm-3.586-3.864a2.071,2.071,0,1,0-4.142,0v2.071h4.142ZM86.05,58.141V62A1.793,1.793,0,0,1,84.257,63.8H76.528A1.793,1.793,0,0,1,74.735,62V58.141a5.657,5.657,0,1,1,11.315,0Zm-3.586,0a2.071,2.071,0,1,0-4.142,0v2.071h4.142Z" transform="translate(0 0)" fill="#f9a828"></path>
      </g>
    </g>
  </g>
</svg>
