<?xml version="1.0" encoding="UTF-8"?>
<svg xmlns="http://www.w3.org/2000/svg" width="155.519" height="103.618" viewBox="0 0 155.519 103.618">
  <g id="Group_2414" data-name="Group 2414" transform="translate(-1374.5 -1449.137)">
    <rect id="Rectangle_2946" data-name="Rectangle 2946" width="43.873" height="12.978" transform="translate(1437.667 1538.277)" fill="none" stroke="#f9a828" stroke-miterlimit="10" stroke-width="3"></rect>
    <rect id="Rectangle_2947" data-name="Rectangle 2947" width="43.873" height="12.978" transform="translate(1481.54 1538.277)" fill="none" stroke="#f9a828" stroke-miterlimit="10" stroke-width="3"></rect>
    <path id="Path_1634" data-name="Path 1634" d="M1229.235,564.177l17.607,17.245h-21.96V594.4h-24.543l-15.592-15.283,10.98-10.763,18.9-18.512,29.208-28.63,14.61,14.333Z" transform="translate(212.785 956.855)" fill="none" stroke="#f9a828" stroke-miterlimit="10" stroke-width="3"></path>
    <path id="Path_1635" data-name="Path 1635" d="M1214.174,551.355,1194.545,570.6l-28.271-27.711a6.371,6.371,0,0,1,0-9.135l10.31-10.105a6.684,6.684,0,0,1,9.319,0Z" transform="translate(211.655 956.885)" fill="none" stroke="#f9a828" stroke-miterlimit="10" stroke-width="3"></path>
    <line id="Line_47" data-name="Line 47" y1="13.388" x2="13.659" transform="translate(1381.285 1489.671)" fill="none" stroke="#f9a828" stroke-miterlimit="10" stroke-width="3"></line>
    <path id="Path_1636" data-name="Path 1636" d="M1309.36,496.836c-8.8,8.627-28.344,15.552-37.749,6.332-14.153-13.872-41.19-7.455-52.513,3.641l-19.919,19.524-2.452-2.4a3.024,3.024,0,0,0-4.214,0l-4.561,4.472,16.9,16.564,4.562-4.472a2.881,2.881,0,0,0,0-4.131l-2.769-2.714,19.918-19.525c7.967-7.809,28.4-12.644,37.587-3.64,11.613,11.383,30.922,8.095,44.389-.013" transform="translate(212.963 955.418)" fill="none" stroke="#f9a828" stroke-miterlimit="10" stroke-width="3"></path>
    <path id="Path_1637" data-name="Path 1637" d="M1305.486,507.687q.429-.31.853-.63c1.134-.858,2.2-1.749,3.189-2.664" transform="translate(219.472 955.924)" fill="none" stroke="#f9a828" stroke-miterlimit="10" stroke-width="3"></path>
  </g>
</svg>
