<?xml version="1.0" encoding="UTF-8"?>
<svg id="Layer_1" data-name="Layer 1" xmlns="http://www.w3.org/2000/svg" viewBox="0 0 312 94">
  <defs>
    <style>
      .cls-1, .cls-2 {
        isolation: isolate;
      }

      .cls-3 {
        fill: #f9a828;
      }

      .cls-3, .cls-4, .cls-2 {
        stroke-width: 0px;
      }

      .cls-4, .cls-2 {
        fill: #fffee6;
      }

      .cls-2 {
        opacity: .9;
      }
    </style>
  </defs>
  <g class="cls-1">
    <path class="cls-4" d="M128.4,22.02v19.4c0,3.45-1,6.14-2.99,8.08s-4.78,2.91-8.35,2.91-6.18-.97-8.13-2.92c-1.95-1.95-2.92-4.67-2.92-8.15v-19.32h2.11v19.4c0,2.88.8,5.13,2.4,6.74,1.6,1.61,3.86,2.41,6.79,2.41s5.07-.79,6.64-2.37c1.57-1.58,2.36-3.77,2.36-6.57v-19.61h2.09Z"/>
    <path class="cls-4" d="M139.25,52v-29.98h2.09v28.01h14.29v1.97h-16.39Z"/>
    <path class="cls-4" d="M171.3,52h-2.11v-28.01h-9.74v-1.97h21.59v1.97h-9.74v28.01Z"/>
    <path class="cls-4" d="M188.18,52v-29.98h2.09v29.98h-2.09Z"/>
    <path class="cls-4" d="M214.64,52l-11.18-27.69h-.16c.11,1.7.16,3.43.16,5.21v22.48h-2.01v-29.98h3.24l10.62,26.37h.12l10.62-26.37h3.16v29.98h-2.11v-22.72c0-1.59.08-3.23.25-4.92h-.16l-11.22,27.64h-1.33Z"/>
    <path class="cls-4" d="M254.82,41.42h-12.18l-4.18,10.58h-2.32l12.06-30.11h1.33l11.81,30.11h-2.36l-4.16-10.58ZM243.39,39.53h10.73l-4.08-10.81c-.34-.85-.75-2.02-1.23-3.53-.37,1.31-.77,2.5-1.21,3.57l-4.2,10.77Z"/>
    <path class="cls-4" d="M276.08,52h-2.11v-28.01h-9.74v-1.97h21.59v1.97h-9.74v28.01Z"/>
    <path class="cls-4" d="M309.35,52h-16.39v-29.98h16.39v1.93h-14.29v11.34h13.49v1.93h-13.49v12.86h14.29v1.93Z"/>
  </g>
  <g class="cls-1">
    <path class="cls-3" d="M108.76,82h-4.18v-15.71h9.28v3.41h-5.1v3h4.71v3.41h-4.71v5.9Z"/>
    <path class="cls-3" d="M118.31,82v-15.71h4.24v12.28h6.05v3.43h-10.29Z"/>
    <path class="cls-3" d="M147.68,74.13c0,2.64-.65,4.65-1.94,6.03-1.3,1.38-3.19,2.06-5.69,2.06s-4.35-.69-5.67-2.07c-1.31-1.38-1.97-3.39-1.97-6.04s.65-4.61,1.96-5.99c1.31-1.38,3.21-2.07,5.7-2.07s4.39.68,5.68,2.05,1.93,3.38,1.93,6.03ZM136.88,74.13c0,3.04,1.06,4.55,3.17,4.55,1.07,0,1.87-.37,2.39-1.11.52-.74.78-1.89.78-3.45s-.26-2.73-.79-3.48c-.53-.75-1.31-1.12-2.36-1.12-2.13,0-3.19,1.53-3.19,4.6Z"/>
    <path class="cls-3" d="M167.08,74.13c0,2.64-.65,4.65-1.94,6.03-1.3,1.38-3.19,2.06-5.69,2.06s-4.35-.69-5.67-2.07c-1.31-1.38-1.97-3.39-1.97-6.04s.65-4.61,1.96-5.99c1.31-1.38,3.21-2.07,5.7-2.07s4.39.68,5.68,2.05,1.93,3.38,1.93,6.03ZM156.28,74.13c0,3.04,1.06,4.55,3.17,4.55,1.07,0,1.87-.37,2.39-1.11s.78-1.89.78-3.45-.26-2.73-.79-3.48c-.53-.75-1.31-1.12-2.36-1.12-2.13,0-3.19,1.53-3.19,4.6Z"/>
    <path class="cls-3" d="M176.03,76.29v5.71h-4.24v-15.71h5.15c4.27,0,6.4,1.55,6.4,4.64,0,1.82-.89,3.23-2.66,4.22l4.58,6.84h-4.81l-3.33-5.71h-1.07ZM176.03,73.09h.79c1.48,0,2.22-.66,2.22-1.97,0-1.08-.73-1.62-2.18-1.62h-.84v3.59Z"/>
    <path class="cls-3" d="M206.4,77.23c0,.97-.25,1.84-.74,2.59-.49.76-1.21,1.34-2.14,1.76-.93.42-2.02.63-3.28.63-1.05,0-1.92-.07-2.63-.22-.71-.15-1.45-.4-2.21-.77v-3.78c.81.42,1.65.74,2.52.97.87.23,1.68.35,2.41.35.63,0,1.09-.11,1.39-.33.29-.22.44-.5.44-.84,0-.21-.06-.4-.18-.56-.12-.16-.31-.32-.57-.49s-.96-.5-2.09-1.01c-1.02-.47-1.79-.92-2.3-1.35s-.89-.94-1.14-1.5-.37-1.24-.37-2.01c0-1.45.53-2.57,1.58-3.38s2.5-1.21,4.34-1.21c1.62,0,3.28.38,4.97,1.13l-1.3,3.28c-1.47-.67-2.74-1.01-3.8-1.01-.55,0-.95.1-1.2.29-.25.19-.38.43-.38.72,0,.31.16.58.48.83s1.18.69,2.59,1.33c1.35.61,2.29,1.26,2.82,1.96.53.7.79,1.58.79,2.64Z"/>
    <path class="cls-3" d="M220.34,82l-.77-2.94h-5.1l-.79,2.94h-4.66l5.12-15.77h5.66l5.19,15.77h-4.64ZM218.68,75.58l-.68-2.58c-.16-.57-.35-1.31-.57-2.22s-.38-1.56-.45-1.96c-.06.37-.19.97-.38,1.8-.19.84-.61,2.49-1.26,4.95h3.34Z"/>
    <path class="cls-3" d="M243.5,82h-5.56l-5.74-11.06h-.1c.14,1.74.2,3.07.2,3.99v7.08h-3.76v-15.71h5.54l5.71,10.91h.06c-.1-1.58-.15-2.85-.15-3.81v-7.1h3.78v15.71Z"/>
    <path class="cls-3" d="M262.09,73.81c0,2.62-.72,4.64-2.16,6.06-1.44,1.42-3.47,2.13-6.09,2.13h-5.08v-15.71h5.44c2.52,0,4.47.64,5.84,1.93,1.37,1.29,2.06,3.15,2.06,5.59ZM257.69,73.97c0-1.44-.28-2.51-.85-3.2s-1.43-1.04-2.59-1.04h-1.24v8.8h.95c1.29,0,2.23-.37,2.84-1.12.6-.75.9-1.89.9-3.43Z"/>
    <path class="cls-3" d="M266.78,82v-15.71h4.26v15.71h-4.26Z"/>
    <path class="cls-3" d="M291.26,82h-5.56l-5.74-11.06h-.1c.14,1.74.2,3.07.2,3.99v7.08h-3.76v-15.71h5.54l5.71,10.91h.06c-.1-1.58-.15-2.85-.15-3.81v-7.1h3.78v15.71Z"/>
    <path class="cls-3" d="M302.83,72.8h6.78v8.46c-1.84.63-3.86.95-6.07.95-2.42,0-4.29-.7-5.61-2.11s-1.98-3.41-1.98-6,.72-4.51,2.17-5.92c1.45-1.41,3.47-2.12,6.08-2.12.99,0,1.92.09,2.8.28s1.64.42,2.29.71l-1.34,3.33c-1.13-.56-2.37-.84-3.73-.84-1.24,0-2.2.4-2.87,1.21-.68.81-1.01,1.96-1.01,3.45s.31,2.59.92,3.36c.61.77,1.5,1.16,2.65,1.16.63,0,1.21-.06,1.74-.18v-2.46h-2.8v-3.28Z"/>
  </g>
  <path id="Path_789" data-name="Path 789" class="cls-2" d="M0,47L47,0l47,47-47,47L0,47Z"/>
  <path id="Path_2186" data-name="Path 2186" class="cls-3" d="M17,17v60h60V17H17M13,13h68v68H13V13Z"/>
</svg>