<svg xmlns="http://www.w3.org/2000/svg" width="29.661" height="29.653" viewBox="0 0 29.661 29.653">
  <path id="Shape" d="M14.83,29.653c-2.64,0-4.984-.04-6.118-.105A8.791,8.791,0,0,1,2.5,27.154,8.721,8.721,0,0,1,.1,20.941c-.139-2.459-.139-9.777,0-12.235A8.762,8.762,0,0,1,2.5,2.493,8.763,8.763,0,0,1,8.713.1C9.846.04,12.19,0,14.83,0s4.984.04,6.116.1a8.783,8.783,0,0,1,6.215,2.4,8.711,8.711,0,0,1,2.394,6.213c.141,2.457.141,9.772,0,12.229a8.772,8.772,0,0,1-2.394,6.213,8.713,8.713,0,0,1-6.215,2.394C19.814,29.613,17.471,29.653,14.83,29.653Zm0-2.671c.306,0,.663,0,1.054.008.474,0,1.009.01,1.566.01,1.964,0,4.734-.064,6.12-.613a5.022,5.022,0,0,0,2.819-2.819c.663-1.667.626-5.284.6-7.677,0-.4-.008-.755-.008-1.063s0-.668.008-1.063c.025-2.391.062-6-.6-7.677a5.019,5.019,0,0,0-2.819-2.819c-1.391-.549-4.193-.612-6.18-.612-.545,0-1.067.005-1.527.009-.774.007-1.312.007-2.088,0-.474,0-1.009-.01-1.566-.01-1.963,0-4.734.064-6.12.613A5.016,5.016,0,0,0,3.274,6.086c-.66,1.674-.626,5.3-.6,7.707,0,.383.007.733.007,1.034s0,.663-.008,1.054c-.024,2.395-.061,6.012.6,7.686a5.019,5.019,0,0,0,2.819,2.819c1.391.549,4.193.612,6.18.612.545,0,1.067-.005,1.527-.009C14.184,26.986,14.533,26.982,14.834,26.982Zm0-4.553a7.6,7.6,0,1,1,7.6-7.6A7.611,7.611,0,0,1,14.834,22.429Zm0-12.546a4.943,4.943,0,1,0,4.943,4.943A4.949,4.949,0,0,0,14.834,9.884Zm7.913-1.2A1.773,1.773,0,1,1,24.52,6.914,1.775,1.775,0,0,1,22.747,8.686Z" fill="#363636"/>
</svg>
