<svg xmlns="http://www.w3.org/2000/svg" width="23.337" height="23.337" viewBox="0 0 23.337 23.337">
  <path id="Icon_awesome-linkedin-in" data-name="Icon awesome-linkedin-in" d="M5.224,23.337H.385V7.757H5.224ZM2.8,5.631A2.815,2.815,0,1,1,5.6,2.8,2.826,2.826,0,0,1,2.8,5.631Zm20.53,17.706H18.5V15.753c0-1.808-.036-4.126-2.516-4.126-2.516,0-2.9,1.964-2.9,4v7.715H8.254V7.757h4.64V9.882h.068A5.084,5.084,0,0,1,17.54,7.366c4.9,0,5.8,3.224,5.8,7.413v8.559Z" transform="translate(0 -0.001)" fill="#363636"/>
</svg>
