<svg xmlns="http://www.w3.org/2000/svg" width="20" height="20.04" viewBox="0 0 20 20.04">
  <path id="df1cf4ce-55fa-4172-90c6-49aaaf45f9c3" d="M22.119,17.011v3.017a2.011,2.011,0,0,1-2.192,2.011,19.913,19.913,0,0,1-8.678-3.087,20.038,20.038,0,0,1-5.087-4.675c-.216-.27-.594-.805-.946-1.359A19.9,19.9,0,0,1,2.128,4.2a2.01,2.01,0,0,1,2-2.192H7.146A2.012,2.012,0,0,1,9.157,3.736a12.958,12.958,0,0,0,.7,2.827,2.01,2.01,0,0,1-.452,2.121L8.131,9.962A16.088,16.088,0,0,0,14.165,16l1.277-1.277a2.012,2.012,0,0,1,2.122-.453,12.894,12.894,0,0,0,2.826.7A2.01,2.01,0,0,1,22.119,17.011Z" transform="translate(-2.12 -2.007)" fill="#363636"/>
</svg>
