<svg xmlns="http://www.w3.org/2000/svg" width="28.713" height="23.32" viewBox="0 0 28.713 23.32">
  <path id="Icon_awesome-twitter" data-name="Icon awesome-twitter" d="M25.761,9.193c.018.255.018.51.018.765,0,7.779-5.921,16.743-16.743,16.743A16.63,16.63,0,0,1,0,24.059a12.174,12.174,0,0,0,1.421.073,11.785,11.785,0,0,0,7.306-2.514,5.9,5.9,0,0,1-5.5-4.081,7.421,7.421,0,0,0,1.111.091,6.224,6.224,0,0,0,1.549-.2,5.885,5.885,0,0,1-4.719-5.775v-.073a5.926,5.926,0,0,0,2.66.747A5.893,5.893,0,0,1,2,4.456a16.727,16.727,0,0,0,12.134,6.158,6.643,6.643,0,0,1-.146-1.348A5.89,5.89,0,0,1,24.176,5.239a11.586,11.586,0,0,0,3.735-1.421,5.869,5.869,0,0,1-2.587,3.243,11.8,11.8,0,0,0,3.389-.911,12.65,12.65,0,0,1-2.951,3.042Z" transform="translate(0 -3.381)" fill="#363636"/>
</svg>
