<svg xmlns="http://www.w3.org/2000/svg" width="29.975" height="21.076" viewBox="0 0 29.975 21.076">
  <path id="Icon_awesome-youtube" data-name="Icon awesome-youtube" d="M30.4,7.8a3.766,3.766,0,0,0-2.65-2.667C25.411,4.5,16.037,4.5,16.037,4.5s-9.373,0-11.711.63A3.766,3.766,0,0,0,1.676,7.8a39.51,39.51,0,0,0-.626,7.262,39.51,39.51,0,0,0,.626,7.262,3.71,3.71,0,0,0,2.65,2.625c2.338.63,11.711.63,11.711.63s9.373,0,11.711-.63a3.71,3.71,0,0,0,2.65-2.625,39.51,39.51,0,0,0,.626-7.262A39.51,39.51,0,0,0,30.4,7.8ZM12.972,19.516V10.6l7.834,4.457-7.834,4.457Z" transform="translate(-1.05 -4.5)" fill="#363636"/>
</svg>
